<?xml version="1.0" encoding="iso-8859-1"?>
<!-- Generator: Adobe Illustrator 19.0.0, SVG Export Plug-In . SVG Version: 6.00 Build 0)  -->
<svg version="1.1" id="Layer_1" xmlns="http://www.w3.org/2000/svg" xmlns:xlink="http://www.w3.org/1999/xlink" x="0px" y="0px"
	 viewBox="0 0 512 512" style="enable-background:new 0 0 512 512;" xml:space="preserve">
<path style="fill:#2E6AAB;" d="M256.803,335.22c-28.327,0-51.371,23.044-51.371,51.371c0,28.327,23.044,51.371,51.371,51.371
	s51.371-23.044,51.371-51.371C308.174,358.264,285.129,335.22,256.803,335.22z"/>
<path style="fill:#FAD52D;" d="M256.803,485.162c-54.352,0-98.571-44.218-98.571-98.571V173.208c0-9.245,7.495-16.741,16.741-16.741
	s16.741,7.495,16.741,16.741v213.384c0,35.89,29.198,65.089,65.089,65.089s65.089-29.198,65.089-65.089V230.757
	c0-9.245,7.495-16.741,16.741-16.741c9.245,0,16.741,7.495,16.741,16.741v155.834C355.374,440.944,311.155,485.162,256.803,485.162z
	"/>
<path style="fill:#DBB100;" d="M287.073,317.755c-9.245,0-16.741-7.495-16.741-16.741V181.056c0-9.245,7.495-16.741,16.741-16.741
	s16.741,7.495,16.741,16.741v119.958C303.814,310.259,296.318,317.755,287.073,317.755z"/>
<path style="fill:#FAD52D;" d="M226.533,327.097c-9.245,0-16.741-7.495-16.741-16.741v-99.778c0-9.245,7.495-16.741,16.741-16.741
	s16.741,7.495,16.741,16.741v99.778C243.274,319.602,235.779,327.097,226.533,327.097z"/>
<circle style="fill:#2E6AAB;" cx="70.312" cy="271.092" r="22.673"/>
<path style="fill:#FAD52D;" d="M70.315,341.402C31.543,341.402,0,309.858,0,271.086V88.257c0-9.245,7.495-16.741,16.741-16.741
	s16.741,7.495,16.741,16.741v182.829c0,20.31,16.523,36.833,36.833,36.833s36.833-16.523,36.833-36.833v-142.21
	c0-9.245,7.495-16.741,16.741-16.741s16.741,7.495,16.741,16.741v142.211C140.631,309.858,109.087,341.402,70.315,341.402z"/>
<path style="fill:#DBB100;" d="M70.315,231.8c-9.245,0-16.741-7.495-16.741-16.741v-78.536c0-9.245,7.495-16.741,16.741-16.741
	s16.741,7.495,16.741,16.741v78.536C87.056,224.304,79.561,231.8,70.315,231.8z"/>
<circle style="fill:#275A91;" cx="441.682" cy="219.552" r="22.673"/>
<path style="fill:#DBB100;" d="M441.686,289.862c-38.772,0-70.315-31.543-70.315-70.315V43.579c0-9.245,7.495-16.741,16.741-16.741
	c9.245,0,16.741,7.495,16.741,16.741v175.968c0,20.31,16.523,36.833,36.833,36.833c20.309,0,36.832-16.523,36.832-36.833V117.523
	c0-9.245,7.495-16.741,16.741-16.741c9.245,0,16.741,7.495,16.741,16.741v102.024C512,258.319,480.457,289.862,441.686,289.862z"/>
<path style="fill:#FAD52D;" d="M441.686,180.26c-9.245,0-16.741-7.495-16.741-16.741V84.983c0-9.245,7.495-16.741,16.741-16.741
	c9.245,0,16.741,7.495,16.741,16.741v78.536C458.427,172.764,450.931,180.26,441.686,180.26z"/>
<path style="fill:#275A91;" d="M256.803,335.22v102.744c28.327,0,51.371-23.044,51.371-51.371
	C308.174,358.266,285.129,335.22,256.803,335.22z"/>
<path style="fill:#DBB100;" d="M338.633,214.016c-9.245,0-16.741,7.495-16.741,16.741v155.834c0,35.89-29.198,65.089-65.089,65.089
	v33.482c54.352,0,98.571-44.218,98.571-98.571V230.757C355.374,221.512,347.878,214.016,338.633,214.016z"/>
<g>
</g>
<g>
</g>
<g>
</g>
<g>
</g>
<g>
</g>
<g>
</g>
<g>
</g>
<g>
</g>
<g>
</g>
<g>
</g>
<g>
</g>
<g>
</g>
<g>
</g>
<g>
</g>
<g>
</g>
</svg>
